# Blender 4.2.3 LTS
# www.blender.org
mtllib valla.mtl
o vallaBlanca
v 0.359020 0.589582 -1.918068
v 1.459020 0.589582 -1.918067
v 0.359020 0.689582 -1.918068
v 1.459020 0.689582 -1.918067
v 0.359020 0.689582 -1.938068
v 0.359020 0.589582 -1.938067
v 1.459020 0.589582 -1.938067
v 1.459020 0.689582 -1.938067
v 0.359020 0.109582 -1.918068
v 1.459020 0.109582 -1.918067
v 0.359020 0.209582 -1.918068
v 1.459020 0.209582 -1.918067
v 0.359020 0.209582 -1.938068
v 0.359020 0.109582 -1.938067
v 1.459020 0.109582 -1.938067
v 1.459020 0.209582 -1.938067
v 0.409020 -0.060418 -1.898068
v 0.509019 -0.060418 -1.898068
v 0.409020 0.839582 -1.898068
v 0.509019 0.839582 -1.898068
v 0.459020 -0.060418 -1.898068
v 0.459020 0.939582 -1.898068
v 0.409020 -0.060418 -1.918068
v 0.509019 -0.060418 -1.918068
v 0.409020 0.839582 -1.918068
v 0.509019 0.839582 -1.918068
v 0.459020 -0.060418 -1.918068
v 0.459020 0.939582 -1.918068
v 0.589020 -0.060418 -1.898068
v 0.689020 -0.060418 -1.898067
v 0.589020 0.839582 -1.898068
v 0.689020 0.839582 -1.898068
v 0.639019 -0.060418 -1.898068
v 0.639019 0.939582 -1.898068
v 0.589020 -0.060418 -1.918068
v 0.689020 -0.060418 -1.918067
v 0.589020 0.839582 -1.918068
v 0.689020 0.839582 -1.918068
v 0.639019 -0.060418 -1.918068
v 0.639019 0.939582 -1.918068
v 0.769019 -0.060418 -1.898067
v 0.869020 -0.060418 -1.898067
v 0.769019 0.839582 -1.898068
v 0.869020 0.839582 -1.898067
v 0.819020 -0.060418 -1.898067
v 0.819020 0.939582 -1.898068
v 0.769019 -0.060418 -1.918067
v 0.869020 -0.060418 -1.918067
v 0.769019 0.839582 -1.918068
v 0.869020 0.839582 -1.918067
v 0.819020 -0.060418 -1.918067
v 0.819020 0.939582 -1.918068
v 0.949020 -0.060418 -1.898067
v 1.049020 -0.060418 -1.898067
v 0.949020 0.839582 -1.898067
v 1.049020 0.839582 -1.898067
v 0.999020 -0.060418 -1.898067
v 0.999020 0.939582 -1.898067
v 0.949020 -0.060418 -1.918067
v 1.049020 -0.060418 -1.918067
v 0.949020 0.839582 -1.918067
v 1.049020 0.839582 -1.918067
v 0.999020 -0.060418 -1.918067
v 0.999020 0.939582 -1.918067
v 1.129019 -0.060418 -1.898067
v 1.229020 -0.060418 -1.898067
v 1.129019 0.839582 -1.898067
v 1.229020 0.839582 -1.898067
v 1.179020 -0.060418 -1.898067
v 1.179020 0.939582 -1.898067
v 1.129019 -0.060418 -1.918067
v 1.229020 -0.060418 -1.918067
v 1.129019 0.839582 -1.918067
v 1.229020 0.839582 -1.918067
v 1.179020 -0.060418 -1.918067
v 1.179020 0.939582 -1.918067
v 1.309019 -0.060418 -1.898067
v 1.409019 -0.060418 -1.898067
v 1.309019 0.839582 -1.898067
v 1.409019 0.839582 -1.898067
v 1.359020 -0.060418 -1.898067
v 1.359020 0.939582 -1.898067
v 1.309019 -0.060418 -1.918067
v 1.409019 -0.060418 -1.918067
v 1.309019 0.839582 -1.918067
v 1.409019 0.839582 -1.918067
v 1.359020 -0.060418 -1.918067
v 1.359020 0.939582 -1.918067
v -0.730981 0.589582 -1.918068
v 0.369020 0.589582 -1.918067
v -0.730981 0.689582 -1.918068
v 0.369020 0.689582 -1.918067
v -0.730981 0.689582 -1.938068
v -0.730981 0.589582 -1.938067
v 0.369020 0.589582 -1.938067
v 0.369020 0.689582 -1.938067
v -0.730981 0.109582 -1.918068
v 0.369020 0.109582 -1.918067
v -0.730981 0.209582 -1.918068
v 0.369020 0.209582 -1.918067
v -0.730981 0.209582 -1.938068
v -0.730981 0.109582 -1.938067
v 0.369020 0.109582 -1.938067
v 0.369020 0.209582 -1.938067
v -0.680981 -0.060418 -1.898068
v -0.580981 -0.060418 -1.898068
v -0.680981 0.839582 -1.898068
v -0.580981 0.839582 -1.898068
v -0.630980 -0.060418 -1.898068
v -0.630980 0.939582 -1.898068
v -0.680981 -0.060418 -1.918068
v -0.580981 -0.060418 -1.918068
v -0.680981 0.839582 -1.918068
v -0.580981 0.839582 -1.918068
v -0.630980 -0.060418 -1.918068
v -0.630980 0.939582 -1.918068
v -0.500980 -0.060418 -1.898068
v -0.400981 -0.060418 -1.898067
v -0.500980 0.839582 -1.898068
v -0.400981 0.839582 -1.898068
v -0.450981 -0.060418 -1.898068
v -0.450981 0.939582 -1.898068
v -0.500980 -0.060418 -1.918068
v -0.400981 -0.060418 -1.918067
v -0.500980 0.839582 -1.918068
v -0.400981 0.839582 -1.918068
v -0.450981 -0.060418 -1.918068
v -0.450981 0.939582 -1.918068
v -0.320981 -0.060418 -1.898067
v -0.220980 -0.060418 -1.898067
v -0.320981 0.839582 -1.898068
v -0.220980 0.839582 -1.898067
v -0.270981 -0.060418 -1.898067
v -0.270981 0.939582 -1.898068
v -0.320981 -0.060418 -1.918067
v -0.220980 -0.060418 -1.918067
v -0.320981 0.839582 -1.918068
v -0.220980 0.839582 -1.918067
v -0.270981 -0.060418 -1.918067
v -0.270981 0.939582 -1.918068
v -0.140981 -0.060418 -1.898067
v -0.040980 -0.060418 -1.898067
v -0.140981 0.839582 -1.898067
v -0.040980 0.839582 -1.898067
v -0.090980 -0.060418 -1.898067
v -0.090980 0.939582 -1.898067
v -0.140981 -0.060418 -1.918067
v -0.040980 -0.060418 -1.918067
v -0.140981 0.839582 -1.918067
v -0.040980 0.839582 -1.918067
v -0.090980 -0.060418 -1.918067
v -0.090980 0.939582 -1.918067
v 0.039019 -0.060418 -1.898067
v 0.139020 -0.060418 -1.898067
v 0.039019 0.839582 -1.898067
v 0.139020 0.839582 -1.898067
v 0.089020 -0.060418 -1.898067
v 0.089020 0.939582 -1.898067
v 0.039019 -0.060418 -1.918067
v 0.139020 -0.060418 -1.918067
v 0.039019 0.839582 -1.918067
v 0.139020 0.839582 -1.918067
v 0.089020 -0.060418 -1.918067
v 0.089020 0.939582 -1.918067
v 0.219019 -0.060418 -1.898067
v 0.319019 -0.060418 -1.898067
v 0.219019 0.839582 -1.898067
v 0.319019 0.839582 -1.898067
v 0.269020 -0.060418 -1.898067
v 0.269020 0.939582 -1.898067
v 0.219019 -0.060418 -1.918067
v 0.319019 -0.060418 -1.918067
v 0.219019 0.839582 -1.918067
v 0.319019 0.839582 -1.918067
v 0.269020 -0.060418 -1.918067
v 0.269020 0.939582 -1.918067
v 3.629019 0.589582 -1.918068
v 4.729020 0.589582 -1.918067
v 3.629019 0.689582 -1.918068
v 4.729020 0.689582 -1.918067
v 3.629019 0.689582 -1.938068
v 3.629019 0.589582 -1.938067
v 4.729020 0.589582 -1.938067
v 4.729020 0.689582 -1.938067
v 3.629019 0.109582 -1.918068
v 4.729020 0.109582 -1.918067
v 3.629019 0.209582 -1.918068
v 4.729020 0.209582 -1.918067
v 3.629019 0.209582 -1.938068
v 3.629019 0.109582 -1.938067
v 4.729020 0.109582 -1.938067
v 4.729020 0.209582 -1.938067
v 3.679019 -0.060418 -1.898068
v 3.779020 -0.060418 -1.898068
v 3.679019 0.839582 -1.898068
v 3.779020 0.839582 -1.898068
v 3.729019 -0.060418 -1.898068
v 3.729019 0.939582 -1.898068
v 3.679019 -0.060418 -1.918068
v 3.779020 -0.060418 -1.918068
v 3.679019 0.839582 -1.918068
v 3.779020 0.839582 -1.918068
v 3.729019 -0.060418 -1.918068
v 3.729019 0.939582 -1.918068
v 3.859020 -0.060418 -1.898068
v 3.959019 -0.060418 -1.898067
v 3.859020 0.839582 -1.898068
v 3.959019 0.839582 -1.898068
v 3.909019 -0.060418 -1.898068
v 3.909019 0.939582 -1.898068
v 3.859020 -0.060418 -1.918068
v 3.959019 -0.060418 -1.918067
v 3.859020 0.839582 -1.918068
v 3.959019 0.839582 -1.918068
v 3.909019 -0.060418 -1.918068
v 3.909019 0.939582 -1.918068
v 4.039020 -0.060418 -1.898067
v 4.139019 -0.060418 -1.898067
v 4.039020 0.839582 -1.898068
v 4.139019 0.839582 -1.898067
v 4.089020 -0.060418 -1.898067
v 4.089020 0.939582 -1.898068
v 4.039020 -0.060418 -1.918067
v 4.139019 -0.060418 -1.918067
v 4.039020 0.839582 -1.918068
v 4.139019 0.839582 -1.918067
v 4.089020 -0.060418 -1.918067
v 4.089020 0.939582 -1.918068
v 4.219019 -0.060418 -1.898067
v 4.319020 -0.060418 -1.898067
v 4.219019 0.839582 -1.898067
v 4.319020 0.839582 -1.898067
v 4.269020 -0.060418 -1.898067
v 4.269020 0.939582 -1.898067
v 4.219019 -0.060418 -1.918067
v 4.319020 -0.060418 -1.918067
v 4.219019 0.839582 -1.918067
v 4.319020 0.839582 -1.918067
v 4.269020 -0.060418 -1.918067
v 4.269020 0.939582 -1.918067
v 4.399020 -0.060418 -1.898067
v 4.499020 -0.060418 -1.898067
v 4.399020 0.839582 -1.898067
v 4.499020 0.839582 -1.898067
v 4.449020 -0.060418 -1.898067
v 4.449020 0.939582 -1.898067
v 4.399020 -0.060418 -1.918067
v 4.499020 -0.060418 -1.918067
v 4.399020 0.839582 -1.918067
v 4.499020 0.839582 -1.918067
v 4.449020 -0.060418 -1.918067
v 4.449020 0.939582 -1.918067
v 4.579020 -0.060418 -1.898067
v 4.679019 -0.060418 -1.898067
v 4.579020 0.839582 -1.898067
v 4.679019 0.839582 -1.898067
v 4.629020 -0.060418 -1.898067
v 4.629020 0.939582 -1.898067
v 4.579020 -0.060418 -1.918067
v 4.679019 -0.060418 -1.918067
v 4.579020 0.839582 -1.918067
v 4.679019 0.839582 -1.918067
v 4.629020 -0.060418 -1.918067
v 4.629020 0.939582 -1.918067
v 2.539019 0.589582 -1.918068
v 3.639019 0.589582 -1.918067
v 2.539019 0.689582 -1.918068
v 3.639019 0.689582 -1.918067
v 2.539019 0.689582 -1.938068
v 2.539019 0.589582 -1.938067
v 3.639019 0.589582 -1.938067
v 3.639019 0.689582 -1.938067
v 2.539019 0.109582 -1.918068
v 3.639019 0.109582 -1.918067
v 2.539019 0.209582 -1.918068
v 3.639019 0.209582 -1.918067
v 2.539019 0.209582 -1.938068
v 2.539019 0.109582 -1.938067
v 3.639019 0.109582 -1.938067
v 3.639019 0.209582 -1.938067
v 2.589019 -0.060418 -1.898068
v 2.689019 -0.060418 -1.898068
v 2.589019 0.839582 -1.898068
v 2.689019 0.839582 -1.898068
v 2.639019 -0.060418 -1.898068
v 2.639019 0.939582 -1.898068
v 2.589019 -0.060418 -1.918068
v 2.689019 -0.060418 -1.918068
v 2.589019 0.839582 -1.918068
v 2.689019 0.839582 -1.918068
v 2.639019 -0.060418 -1.918068
v 2.639019 0.939582 -1.918068
v 2.769019 -0.060418 -1.898068
v 2.869019 -0.060418 -1.898067
v 2.769019 0.839582 -1.898068
v 2.869019 0.839582 -1.898068
v 2.819019 -0.060418 -1.898068
v 2.819019 0.939582 -1.898068
v 2.769019 -0.060418 -1.918068
v 2.869019 -0.060418 -1.918067
v 2.769019 0.839582 -1.918068
v 2.869019 0.839582 -1.918068
v 2.819019 -0.060418 -1.918068
v 2.819019 0.939582 -1.918068
v 2.949019 -0.060418 -1.898067
v 3.049019 -0.060418 -1.898067
v 2.949019 0.839582 -1.898068
v 3.049019 0.839582 -1.898067
v 2.999019 -0.060418 -1.898067
v 2.999019 0.939582 -1.898068
v 2.949019 -0.060418 -1.918067
v 3.049019 -0.060418 -1.918067
v 2.949019 0.839582 -1.918068
v 3.049019 0.839582 -1.918067
v 2.999019 -0.060418 -1.918067
v 2.999019 0.939582 -1.918068
v 3.129019 -0.060418 -1.898067
v 3.229019 -0.060418 -1.898067
v 3.129019 0.839582 -1.898067
v 3.229019 0.839582 -1.898067
v 3.179019 -0.060418 -1.898067
v 3.179019 0.939582 -1.898067
v 3.129019 -0.060418 -1.918067
v 3.229019 -0.060418 -1.918067
v 3.129019 0.839582 -1.918067
v 3.229019 0.839582 -1.918067
v 3.179019 -0.060418 -1.918067
v 3.179019 0.939582 -1.918067
v 3.309019 -0.060418 -1.898067
v 3.409019 -0.060418 -1.898067
v 3.309019 0.839582 -1.898067
v 3.409019 0.839582 -1.898067
v 3.359019 -0.060418 -1.898067
v 3.359019 0.939582 -1.898067
v 3.309019 -0.060418 -1.918067
v 3.409019 -0.060418 -1.918067
v 3.309019 0.839582 -1.918067
v 3.409019 0.839582 -1.918067
v 3.359019 -0.060418 -1.918067
v 3.359019 0.939582 -1.918067
v 3.489019 -0.060418 -1.898067
v 3.589019 -0.060418 -1.898067
v 3.489019 0.839582 -1.898067
v 3.589019 0.839582 -1.898067
v 3.539019 -0.060418 -1.898067
v 3.539019 0.939582 -1.898067
v 3.489019 -0.060418 -1.918067
v 3.589019 -0.060418 -1.918067
v 3.489019 0.839582 -1.918067
v 3.589019 0.839582 -1.918067
v 3.539019 -0.060418 -1.918067
v 3.539019 0.939582 -1.918067
v 1.449020 0.589582 -1.918068
v 2.549020 0.589582 -1.918067
v 1.449020 0.689582 -1.918068
v 2.549020 0.689582 -1.918067
v 1.449020 0.689582 -1.938068
v 1.449020 0.589582 -1.938067
v 2.549020 0.589582 -1.938067
v 2.549020 0.689582 -1.938067
v 1.449020 0.109582 -1.918068
v 2.549020 0.109582 -1.918067
v 1.449020 0.209582 -1.918068
v 2.549020 0.209582 -1.918067
v 1.449020 0.209582 -1.938068
v 1.449020 0.109582 -1.938067
v 2.549020 0.109582 -1.938067
v 2.549020 0.209582 -1.938067
v 1.499020 -0.060418 -1.898068
v 1.599020 -0.060418 -1.898068
v 1.499020 0.839582 -1.898068
v 1.599020 0.839582 -1.898068
v 1.549020 -0.060418 -1.898068
v 1.549020 0.939582 -1.898068
v 1.499020 -0.060418 -1.918068
v 1.599020 -0.060418 -1.918068
v 1.499020 0.839582 -1.918068
v 1.599020 0.839582 -1.918068
v 1.549020 -0.060418 -1.918068
v 1.549020 0.939582 -1.918068
v 1.679020 -0.060418 -1.898068
v 1.779020 -0.060418 -1.898067
v 1.679020 0.839582 -1.898068
v 1.779020 0.839582 -1.898068
v 1.729020 -0.060418 -1.898068
v 1.729020 0.939582 -1.898068
v 1.679020 -0.060418 -1.918068
v 1.779020 -0.060418 -1.918067
v 1.679020 0.839582 -1.918068
v 1.779020 0.839582 -1.918068
v 1.729020 -0.060418 -1.918068
v 1.729020 0.939582 -1.918068
v 1.859020 -0.060418 -1.898067
v 1.959020 -0.060418 -1.898067
v 1.859020 0.839582 -1.898068
v 1.959020 0.839582 -1.898067
v 1.909019 -0.060418 -1.898067
v 1.909019 0.939582 -1.898068
v 1.859020 -0.060418 -1.918067
v 1.959020 -0.060418 -1.918067
v 1.859020 0.839582 -1.918068
v 1.959020 0.839582 -1.918067
v 1.909019 -0.060418 -1.918067
v 1.909019 0.939582 -1.918068
v 2.039020 -0.060418 -1.898067
v 2.139019 -0.060418 -1.898067
v 2.039020 0.839582 -1.898067
v 2.139019 0.839582 -1.898067
v 2.089020 -0.060418 -1.898067
v 2.089020 0.939582 -1.898067
v 2.039020 -0.060418 -1.918067
v 2.139019 -0.060418 -1.918067
v 2.039020 0.839582 -1.918067
v 2.139019 0.839582 -1.918067
v 2.089020 -0.060418 -1.918067
v 2.089020 0.939582 -1.918067
v 2.219020 -0.060418 -1.898067
v 2.319020 -0.060418 -1.898067
v 2.219020 0.839582 -1.898067
v 2.319020 0.839582 -1.898067
v 2.269020 -0.060418 -1.898067
v 2.269020 0.939582 -1.898067
v 2.219020 -0.060418 -1.918067
v 2.319020 -0.060418 -1.918067
v 2.219020 0.839582 -1.918067
v 2.319020 0.839582 -1.918067
v 2.269020 -0.060418 -1.918067
v 2.269020 0.939582 -1.918067
v 2.399019 -0.060418 -1.898067
v 2.499019 -0.060418 -1.898067
v 2.399019 0.839582 -1.898067
v 2.499019 0.839582 -1.898067
v 2.449020 -0.060418 -1.898067
v 2.449020 0.939582 -1.898067
v 2.399019 -0.060418 -1.918067
v 2.499019 -0.060418 -1.918067
v 2.399019 0.839582 -1.918067
v 2.499019 0.839582 -1.918067
v 2.449020 -0.060418 -1.918067
v 2.449020 0.939582 -1.918067
vn -0.0000 -0.0000 -1.0000
vn -0.0000 -0.0000 1.0000
vn -1.0000 -0.0000 -0.0000
vn 1.0000 -0.0000 -0.0000
vn -0.0000 -1.0000 -0.0000
vn -0.0000 1.0000 -0.0000
vn -0.8944 -0.4472 -0.0000
vn 0.8944 -0.4472 -0.0000
vt -1.999842 0.300012
vt -1.999841 -0.199957
vt 2.999842 -0.199957
vt 2.999842 0.300014
vt -2.068634 0.537099
vt 2.931050 0.537101
vt 2.931050 1.037070
vt -2.068634 1.037070
vt 0.172005 0.140154
vt 0.172005 0.859846
vt 0.028067 0.859846
vt 0.028067 0.140154
vt 1.000000 0.000000
vt 1.000000 0.100000
vt 0.923077 0.100000
vt 0.923077 0.000000
vt 2.999929 0.059999
vt -1.999929 0.060013
vt -1.999929 -0.039985
vt 2.999929 -0.039976
vt 0.642762 -1.943876
vt 0.642762 3.055406
vt 0.392798 2.555477
vt 0.392798 -1.943876
vt 0.892727 -1.943876
vt 0.892726 2.555477
vt 0.473538 -1.380629
vt 0.723518 -1.380543
vt 0.721965 3.119095
vt 0.471812 3.618968
vt 0.223558 -1.380715
vt 0.222005 3.118921
vt 0.922573 -0.774756
vt 0.922572 1.448945
vt 0.873157 1.448945
vt 0.873157 -0.774756
vt 0.863865 -0.380993
vt 0.863865 1.842720
vt 0.814449 1.842721
vt 0.814449 -0.380993
vt 0.752981 -0.009891
vt 0.752981 0.266353
vt 0.703565 0.266353
vt 0.703565 -0.009891
vt 0.711746 0.001952
vt 0.711746 0.278195
vt 0.662330 0.278196
vt 0.662330 0.001952
s 0
usemtl woodFence_mat_NONE.005
f 1/1/1 3/2/1 4/3/1 2/4/1
f 6/5/2 7/6/2 8/7/2 5/8/2
f 2/9/3 4/10/3 8/11/3 7/12/3
f 3/13/4 1/14/4 6/15/4 5/16/4
f 4/17/5 3/18/5 5/19/5 8/20/5
f 1/19/6 2/20/6 7/17/6 6/18/6
f 9/1/1 11/2/1 12/3/1 10/4/1
f 14/5/2 15/6/2 16/7/2 13/8/2
f 10/9/3 12/10/3 16/11/3 15/12/3
f 11/13/4 9/14/4 14/15/4 13/16/4
f 12/17/5 11/18/5 13/19/5 16/20/5
f 9/19/6 10/20/6 15/17/6 14/18/6
usemtl woodFence_mat.005
f 21/21/1 22/22/1 20/23/1 18/24/1
f 17/25/1 19/26/1 22/22/1 21/21/1
f 27/27/2 24/28/2 26/29/2 28/30/2
f 23/31/2 27/27/2 28/30/2 25/32/2
f 18/33/3 20/34/3 26/35/3 24/36/3
f 19/37/4 17/38/4 23/39/4 25/40/4
f 20/41/7 22/42/7 28/43/7 26/44/7
f 22/45/8 19/46/8 25/47/8 28/48/8
f 33/21/1 34/22/1 32/23/1 30/24/1
f 29/25/1 31/26/1 34/22/1 33/21/1
f 39/27/2 36/28/2 38/29/2 40/30/2
f 35/31/2 39/27/2 40/30/2 37/32/2
f 30/33/3 32/34/3 38/35/3 36/36/3
f 31/37/4 29/38/4 35/39/4 37/40/4
f 32/41/7 34/42/7 40/43/7 38/44/7
f 34/45/8 31/46/8 37/47/8 40/48/8
f 45/21/1 46/22/1 44/23/1 42/24/1
f 41/25/1 43/26/1 46/22/1 45/21/1
f 51/27/2 48/28/2 50/29/2 52/30/2
f 47/31/2 51/27/2 52/30/2 49/32/2
f 42/33/3 44/34/3 50/35/3 48/36/3
f 43/37/4 41/38/4 47/39/4 49/40/4
f 44/41/7 46/42/7 52/43/7 50/44/7
f 46/45/8 43/46/8 49/47/8 52/48/8
f 57/21/1 58/22/1 56/23/1 54/24/1
f 53/25/1 55/26/1 58/22/1 57/21/1
f 63/27/2 60/28/2 62/29/2 64/30/2
f 59/31/2 63/27/2 64/30/2 61/32/2
f 54/33/3 56/34/3 62/35/3 60/36/3
f 55/37/4 53/38/4 59/39/4 61/40/4
f 56/41/7 58/42/7 64/43/7 62/44/7
f 58/45/8 55/46/8 61/47/8 64/48/8
f 69/21/1 70/22/1 68/23/1 66/24/1
f 65/25/1 67/26/1 70/22/1 69/21/1
f 75/27/2 72/28/2 74/29/2 76/30/2
f 71/31/2 75/27/2 76/30/2 73/32/2
f 66/33/3 68/34/3 74/35/3 72/36/3
f 67/37/4 65/38/4 71/39/4 73/40/4
f 68/41/7 70/42/7 76/43/7 74/44/7
f 70/45/8 67/46/8 73/47/8 76/48/8
f 81/21/1 82/22/1 80/23/1 78/24/1
f 77/25/1 79/26/1 82/22/1 81/21/1
f 87/27/2 84/28/2 86/29/2 88/30/2
f 83/31/2 87/27/2 88/30/2 85/32/2
f 78/33/3 80/34/3 86/35/3 84/36/3
f 79/37/4 77/38/4 83/39/4 85/40/4
f 80/41/7 82/42/7 88/43/7 86/44/7
f 82/45/8 79/46/8 85/47/8 88/48/8
usemtl woodFence_mat_NONE.006
f 89/1/1 91/2/1 92/3/1 90/4/1
f 94/5/2 95/6/2 96/7/2 93/8/2
f 90/9/3 92/10/3 96/11/3 95/12/3
f 91/13/4 89/14/4 94/15/4 93/16/4
f 92/17/5 91/18/5 93/19/5 96/20/5
f 89/19/6 90/20/6 95/17/6 94/18/6
f 97/1/1 99/2/1 100/3/1 98/4/1
f 102/5/2 103/6/2 104/7/2 101/8/2
f 98/9/3 100/10/3 104/11/3 103/12/3
f 99/13/4 97/14/4 102/15/4 101/16/4
f 100/17/5 99/18/5 101/19/5 104/20/5
f 97/19/6 98/20/6 103/17/6 102/18/6
usemtl woodFence_mat.006
f 109/21/1 110/22/1 108/23/1 106/24/1
f 105/25/1 107/26/1 110/22/1 109/21/1
f 115/27/2 112/28/2 114/29/2 116/30/2
f 111/31/2 115/27/2 116/30/2 113/32/2
f 106/33/3 108/34/3 114/35/3 112/36/3
f 107/37/4 105/38/4 111/39/4 113/40/4
f 108/41/7 110/42/7 116/43/7 114/44/7
f 110/45/8 107/46/8 113/47/8 116/48/8
f 121/21/1 122/22/1 120/23/1 118/24/1
f 117/25/1 119/26/1 122/22/1 121/21/1
f 127/27/2 124/28/2 126/29/2 128/30/2
f 123/31/2 127/27/2 128/30/2 125/32/2
f 118/33/3 120/34/3 126/35/3 124/36/3
f 119/37/4 117/38/4 123/39/4 125/40/4
f 120/41/7 122/42/7 128/43/7 126/44/7
f 122/45/8 119/46/8 125/47/8 128/48/8
f 133/21/1 134/22/1 132/23/1 130/24/1
f 129/25/1 131/26/1 134/22/1 133/21/1
f 139/27/2 136/28/2 138/29/2 140/30/2
f 135/31/2 139/27/2 140/30/2 137/32/2
f 130/33/3 132/34/3 138/35/3 136/36/3
f 131/37/4 129/38/4 135/39/4 137/40/4
f 132/41/7 134/42/7 140/43/7 138/44/7
f 134/45/8 131/46/8 137/47/8 140/48/8
f 145/21/1 146/22/1 144/23/1 142/24/1
f 141/25/1 143/26/1 146/22/1 145/21/1
f 151/27/2 148/28/2 150/29/2 152/30/2
f 147/31/2 151/27/2 152/30/2 149/32/2
f 142/33/3 144/34/3 150/35/3 148/36/3
f 143/37/4 141/38/4 147/39/4 149/40/4
f 144/41/7 146/42/7 152/43/7 150/44/7
f 146/45/8 143/46/8 149/47/8 152/48/8
f 157/21/1 158/22/1 156/23/1 154/24/1
f 153/25/1 155/26/1 158/22/1 157/21/1
f 163/27/2 160/28/2 162/29/2 164/30/2
f 159/31/2 163/27/2 164/30/2 161/32/2
f 154/33/3 156/34/3 162/35/3 160/36/3
f 155/37/4 153/38/4 159/39/4 161/40/4
f 156/41/7 158/42/7 164/43/7 162/44/7
f 158/45/8 155/46/8 161/47/8 164/48/8
f 169/21/1 170/22/1 168/23/1 166/24/1
f 165/25/1 167/26/1 170/22/1 169/21/1
f 175/27/2 172/28/2 174/29/2 176/30/2
f 171/31/2 175/27/2 176/30/2 173/32/2
f 166/33/3 168/34/3 174/35/3 172/36/3
f 167/37/4 165/38/4 171/39/4 173/40/4
f 168/41/7 170/42/7 176/43/7 174/44/7
f 170/45/8 167/46/8 173/47/8 176/48/8
usemtl woodFence_mat_NONE.007
f 177/1/1 179/2/1 180/3/1 178/4/1
f 182/5/2 183/6/2 184/7/2 181/8/2
f 178/9/3 180/10/3 184/11/3 183/12/3
f 179/13/4 177/14/4 182/15/4 181/16/4
f 180/17/5 179/18/5 181/19/5 184/20/5
f 177/19/6 178/20/6 183/17/6 182/18/6
f 185/1/1 187/2/1 188/3/1 186/4/1
f 190/5/2 191/6/2 192/7/2 189/8/2
f 186/9/3 188/10/3 192/11/3 191/12/3
f 187/13/4 185/14/4 190/15/4 189/16/4
f 188/17/5 187/18/5 189/19/5 192/20/5
f 185/19/6 186/20/6 191/17/6 190/18/6
usemtl woodFence_mat.007
f 197/21/1 198/22/1 196/23/1 194/24/1
f 193/25/1 195/26/1 198/22/1 197/21/1
f 203/27/2 200/28/2 202/29/2 204/30/2
f 199/31/2 203/27/2 204/30/2 201/32/2
f 194/33/3 196/34/3 202/35/3 200/36/3
f 195/37/4 193/38/4 199/39/4 201/40/4
f 196/41/7 198/42/7 204/43/7 202/44/7
f 198/45/8 195/46/8 201/47/8 204/48/8
f 209/21/1 210/22/1 208/23/1 206/24/1
f 205/25/1 207/26/1 210/22/1 209/21/1
f 215/27/2 212/28/2 214/29/2 216/30/2
f 211/31/2 215/27/2 216/30/2 213/32/2
f 206/33/3 208/34/3 214/35/3 212/36/3
f 207/37/4 205/38/4 211/39/4 213/40/4
f 208/41/7 210/42/7 216/43/7 214/44/7
f 210/45/8 207/46/8 213/47/8 216/48/8
f 221/21/1 222/22/1 220/23/1 218/24/1
f 217/25/1 219/26/1 222/22/1 221/21/1
f 227/27/2 224/28/2 226/29/2 228/30/2
f 223/31/2 227/27/2 228/30/2 225/32/2
f 218/33/3 220/34/3 226/35/3 224/36/3
f 219/37/4 217/38/4 223/39/4 225/40/4
f 220/41/7 222/42/7 228/43/7 226/44/7
f 222/45/8 219/46/8 225/47/8 228/48/8
f 233/21/1 234/22/1 232/23/1 230/24/1
f 229/25/1 231/26/1 234/22/1 233/21/1
f 239/27/2 236/28/2 238/29/2 240/30/2
f 235/31/2 239/27/2 240/30/2 237/32/2
f 230/33/3 232/34/3 238/35/3 236/36/3
f 231/37/4 229/38/4 235/39/4 237/40/4
f 232/41/7 234/42/7 240/43/7 238/44/7
f 234/45/8 231/46/8 237/47/8 240/48/8
f 245/21/1 246/22/1 244/23/1 242/24/1
f 241/25/1 243/26/1 246/22/1 245/21/1
f 251/27/2 248/28/2 250/29/2 252/30/2
f 247/31/2 251/27/2 252/30/2 249/32/2
f 242/33/3 244/34/3 250/35/3 248/36/3
f 243/37/4 241/38/4 247/39/4 249/40/4
f 244/41/7 246/42/7 252/43/7 250/44/7
f 246/45/8 243/46/8 249/47/8 252/48/8
f 257/21/1 258/22/1 256/23/1 254/24/1
f 253/25/1 255/26/1 258/22/1 257/21/1
f 263/27/2 260/28/2 262/29/2 264/30/2
f 259/31/2 263/27/2 264/30/2 261/32/2
f 254/33/3 256/34/3 262/35/3 260/36/3
f 255/37/4 253/38/4 259/39/4 261/40/4
f 256/41/7 258/42/7 264/43/7 262/44/7
f 258/45/8 255/46/8 261/47/8 264/48/8
usemtl woodFence_mat_NONE.008
f 265/1/1 267/2/1 268/3/1 266/4/1
f 270/5/2 271/6/2 272/7/2 269/8/2
f 266/9/3 268/10/3 272/11/3 271/12/3
f 267/13/4 265/14/4 270/15/4 269/16/4
f 268/17/5 267/18/5 269/19/5 272/20/5
f 265/19/6 266/20/6 271/17/6 270/18/6
f 273/1/1 275/2/1 276/3/1 274/4/1
f 278/5/2 279/6/2 280/7/2 277/8/2
f 274/9/3 276/10/3 280/11/3 279/12/3
f 275/13/4 273/14/4 278/15/4 277/16/4
f 276/17/5 275/18/5 277/19/5 280/20/5
f 273/19/6 274/20/6 279/17/6 278/18/6
usemtl woodFence_mat.008
f 285/21/1 286/22/1 284/23/1 282/24/1
f 281/25/1 283/26/1 286/22/1 285/21/1
f 291/27/2 288/28/2 290/29/2 292/30/2
f 287/31/2 291/27/2 292/30/2 289/32/2
f 282/33/3 284/34/3 290/35/3 288/36/3
f 283/37/4 281/38/4 287/39/4 289/40/4
f 284/41/7 286/42/7 292/43/7 290/44/7
f 286/45/8 283/46/8 289/47/8 292/48/8
f 297/21/1 298/22/1 296/23/1 294/24/1
f 293/25/1 295/26/1 298/22/1 297/21/1
f 303/27/2 300/28/2 302/29/2 304/30/2
f 299/31/2 303/27/2 304/30/2 301/32/2
f 294/33/3 296/34/3 302/35/3 300/36/3
f 295/37/4 293/38/4 299/39/4 301/40/4
f 296/41/7 298/42/7 304/43/7 302/44/7
f 298/45/8 295/46/8 301/47/8 304/48/8
f 309/21/1 310/22/1 308/23/1 306/24/1
f 305/25/1 307/26/1 310/22/1 309/21/1
f 315/27/2 312/28/2 314/29/2 316/30/2
f 311/31/2 315/27/2 316/30/2 313/32/2
f 306/33/3 308/34/3 314/35/3 312/36/3
f 307/37/4 305/38/4 311/39/4 313/40/4
f 308/41/7 310/42/7 316/43/7 314/44/7
f 310/45/8 307/46/8 313/47/8 316/48/8
f 321/21/1 322/22/1 320/23/1 318/24/1
f 317/25/1 319/26/1 322/22/1 321/21/1
f 327/27/2 324/28/2 326/29/2 328/30/2
f 323/31/2 327/27/2 328/30/2 325/32/2
f 318/33/3 320/34/3 326/35/3 324/36/3
f 319/37/4 317/38/4 323/39/4 325/40/4
f 320/41/7 322/42/7 328/43/7 326/44/7
f 322/45/8 319/46/8 325/47/8 328/48/8
f 333/21/1 334/22/1 332/23/1 330/24/1
f 329/25/1 331/26/1 334/22/1 333/21/1
f 339/27/2 336/28/2 338/29/2 340/30/2
f 335/31/2 339/27/2 340/30/2 337/32/2
f 330/33/3 332/34/3 338/35/3 336/36/3
f 331/37/4 329/38/4 335/39/4 337/40/4
f 332/41/7 334/42/7 340/43/7 338/44/7
f 334/45/8 331/46/8 337/47/8 340/48/8
f 345/21/1 346/22/1 344/23/1 342/24/1
f 341/25/1 343/26/1 346/22/1 345/21/1
f 351/27/2 348/28/2 350/29/2 352/30/2
f 347/31/2 351/27/2 352/30/2 349/32/2
f 342/33/3 344/34/3 350/35/3 348/36/3
f 343/37/4 341/38/4 347/39/4 349/40/4
f 344/41/7 346/42/7 352/43/7 350/44/7
f 346/45/8 343/46/8 349/47/8 352/48/8
usemtl woodFence_mat_NONE.009
f 353/1/1 355/2/1 356/3/1 354/4/1
f 358/5/2 359/6/2 360/7/2 357/8/2
f 354/9/3 356/10/3 360/11/3 359/12/3
f 355/13/4 353/14/4 358/15/4 357/16/4
f 356/17/5 355/18/5 357/19/5 360/20/5
f 353/19/6 354/20/6 359/17/6 358/18/6
f 361/1/1 363/2/1 364/3/1 362/4/1
f 366/5/2 367/6/2 368/7/2 365/8/2
f 362/9/3 364/10/3 368/11/3 367/12/3
f 363/13/4 361/14/4 366/15/4 365/16/4
f 364/17/5 363/18/5 365/19/5 368/20/5
f 361/19/6 362/20/6 367/17/6 366/18/6
usemtl woodFence_mat.009
f 373/21/1 374/22/1 372/23/1 370/24/1
f 369/25/1 371/26/1 374/22/1 373/21/1
f 379/27/2 376/28/2 378/29/2 380/30/2
f 375/31/2 379/27/2 380/30/2 377/32/2
f 370/33/3 372/34/3 378/35/3 376/36/3
f 371/37/4 369/38/4 375/39/4 377/40/4
f 372/41/7 374/42/7 380/43/7 378/44/7
f 374/45/8 371/46/8 377/47/8 380/48/8
f 385/21/1 386/22/1 384/23/1 382/24/1
f 381/25/1 383/26/1 386/22/1 385/21/1
f 391/27/2 388/28/2 390/29/2 392/30/2
f 387/31/2 391/27/2 392/30/2 389/32/2
f 382/33/3 384/34/3 390/35/3 388/36/3
f 383/37/4 381/38/4 387/39/4 389/40/4
f 384/41/7 386/42/7 392/43/7 390/44/7
f 386/45/8 383/46/8 389/47/8 392/48/8
f 397/21/1 398/22/1 396/23/1 394/24/1
f 393/25/1 395/26/1 398/22/1 397/21/1
f 403/27/2 400/28/2 402/29/2 404/30/2
f 399/31/2 403/27/2 404/30/2 401/32/2
f 394/33/3 396/34/3 402/35/3 400/36/3
f 395/37/4 393/38/4 399/39/4 401/40/4
f 396/41/7 398/42/7 404/43/7 402/44/7
f 398/45/8 395/46/8 401/47/8 404/48/8
f 409/21/1 410/22/1 408/23/1 406/24/1
f 405/25/1 407/26/1 410/22/1 409/21/1
f 415/27/2 412/28/2 414/29/2 416/30/2
f 411/31/2 415/27/2 416/30/2 413/32/2
f 406/33/3 408/34/3 414/35/3 412/36/3
f 407/37/4 405/38/4 411/39/4 413/40/4
f 408/41/7 410/42/7 416/43/7 414/44/7
f 410/45/8 407/46/8 413/47/8 416/48/8
f 421/21/1 422/22/1 420/23/1 418/24/1
f 417/25/1 419/26/1 422/22/1 421/21/1
f 427/27/2 424/28/2 426/29/2 428/30/2
f 423/31/2 427/27/2 428/30/2 425/32/2
f 418/33/3 420/34/3 426/35/3 424/36/3
f 419/37/4 417/38/4 423/39/4 425/40/4
f 420/41/7 422/42/7 428/43/7 426/44/7
f 422/45/8 419/46/8 425/47/8 428/48/8
f 433/21/1 434/22/1 432/23/1 430/24/1
f 429/25/1 431/26/1 434/22/1 433/21/1
f 439/27/2 436/28/2 438/29/2 440/30/2
f 435/31/2 439/27/2 440/30/2 437/32/2
f 430/33/3 432/34/3 438/35/3 436/36/3
f 431/37/4 429/38/4 435/39/4 437/40/4
f 432/41/7 434/42/7 440/43/7 438/44/7
f 434/45/8 431/46/8 437/47/8 440/48/8
